<svg xmlns="http://www.w3.org/2000/svg" width="195" height="119" viewBox="0 0 195 119" version="1.1">
	<path d="M 94.063 14.424 C 93.325 15.314, 93.133 17.192, 93.552 19.427 C 94.190 22.827, 94.068 23.036, 91.112 23.628 C 89.400 23.970, 88 24.644, 88 25.125 C 88 25.606, 86.677 26, 85.060 26 C 82.385 26, 82.093 25.663, 81.810 22.250 C 81.541 18.999, 81.167 18.500, 79 18.500 C 76.706 18.500, 76.515 18.842, 76.680 22.652 C 76.820 25.894, 76.467 26.906, 75.068 27.272 C 74.082 27.530, 72.524 29.248, 71.605 31.091 C 69.978 34.351, 69.995 34.488, 72.217 36.198 C 73.472 37.165, 74.780 37.966, 75.121 37.978 C 75.463 37.990, 76.048 35.697, 76.421 32.883 C 76.794 30.069, 77.331 27.998, 77.614 28.281 C 77.897 28.563, 77.710 31.095, 77.199 33.907 L 76.270 39.019 81.885 42.366 C 95.775 50.647, 95.568 50.574, 99.751 48.600 C 101.813 47.627, 106.875 44.685, 111 42.063 C 115.125 39.441, 119.625 36.749, 121 36.081 L 123.500 34.866 121 36.962 C 119.625 38.115, 114.112 41.789, 108.750 45.127 C 103.388 48.464, 99 51.370, 99 51.585 C 99 51.992, 112.612 59, 113.403 59 C 113.753 59, 115.120 50.894, 115.449 46.871 C 115.477 46.525, 119.254 43.459, 123.841 40.058 C 139.095 28.748, 145.841 21.225, 144.505 17.015 C 143.663 14.363, 139.777 14.380, 131.790 17.071 C 125.360 19.237, 117.558 22.900, 118.153 23.474 C 118.344 23.658, 122.325 22.511, 127 20.925 C 135.396 18.078, 141 17.232, 141 18.813 C 141 20.663, 121.229 36, 118.844 36 C 118.324 36, 117.195 34.313, 116.337 32.250 C 114.603 28.086, 113.338 26.933, 111.345 27.698 C 110.239 28.122, 110.244 27.650, 111.373 24.964 C 113.196 20.628, 112.416 18, 109.307 18 C 107.108 18, 106.879 18.369, 107.146 21.477 C 107.311 23.389, 106.896 25.504, 106.223 26.177 C 105.494 26.906, 105 26.980, 105 26.361 C 105 24.512, 99.964 22.785, 98.388 24.093 C 97.379 24.930, 97 24.938, 97 24.122 C 97 23.505, 97.430 23, 97.955 23 C 98.480 23, 99.206 21.420, 99.568 19.489 C 100.557 14.219, 96.971 10.920, 94.063 14.424 M 48.667 15.667 C 45.549 18.785, 52.421 27.622, 66.054 38.027 C 73.050 43.366, 73.697 44.175, 74.804 48.972 C 75.462 51.821, 76 55.468, 76 57.076 C 76 60.201, 76.951 60.632, 80.114 58.939 C 81.527 58.183, 81.924 57.249, 81.496 55.689 C 80.931 53.626, 80.980 53.604, 82.355 55.314 C 83.753 57.052, 84.027 57.020, 88.907 54.547 C 91.708 53.128, 94 51.792, 94 51.578 C 94 51.365, 90.512 49.145, 86.248 46.646 C 78.360 42.021, 67.029 34, 68.385 34 C 68.795 34, 65.839 31.368, 61.816 28.152 C 57.792 24.936, 53.643 21.336, 52.595 20.152 L 50.690 18 54.095 18.013 C 55.968 18.021, 61.307 19.352, 65.959 20.971 C 70.612 22.590, 74.605 23.728, 74.833 23.500 C 75.321 23.012, 65.619 18.629, 59.315 16.489 C 54.702 14.922, 49.790 14.543, 48.667 15.667 M 79.603 32.972 C 79.885 39.862, 80.378 41, 83.085 41 C 84.932 41, 84.961 40.824, 83.554 38.105 C 82.731 36.513, 81.762 33.363, 81.401 31.105 C 80.424 24.998, 79.324 26.141, 79.603 32.972 M 103.015 40.250 C 103.027 43.362, 103.290 44.099, 104 43 C 105.276 41.026, 105.276 36, 104 36 C 103.450 36, 103.007 37.913, 103.015 40.250 M 124.834 55.587 C 134.673 64.727, 135.254 66.467, 127.750 64.311 C 124.862 63.481, 121.713 62.750, 120.750 62.687 C 119.787 62.623, 119 62.170, 119 61.679 C 119 61.188, 118.325 61.045, 117.500 61.362 C 116.675 61.678, 116 61.475, 116 60.910 C 116 60.344, 115.601 60.128, 115.114 60.430 C 114.627 60.731, 110.398 59.182, 105.717 56.989 C 101.035 54.795, 96.769 53, 96.237 53 C 95.704 53, 90.934 55.053, 85.638 57.562 C 80.342 60.071, 75.557 61.844, 75.004 61.503 C 74.452 61.161, 74 61.262, 74 61.727 C 74 62.191, 73.213 62.593, 72.250 62.620 C 71.287 62.647, 68.147 63.391, 65.272 64.274 C 62.208 65.215, 59.806 65.495, 59.469 64.950 C 59.153 64.439, 62.386 60.641, 66.653 56.511 C 70.920 52.380, 73.969 49, 73.429 49 C 72.066 49, 59.066 59.461, 57.305 61.975 C 56.513 63.106, 56.008 65.036, 56.182 66.265 C 56.606 69.247, 62.293 69.743, 70.300 67.496 C 73.534 66.589, 76.477 66.167, 76.840 66.560 C 77.203 66.953, 76.938 67.475, 76.250 67.720 C 75.563 67.966, 75 68.747, 75 69.457 C 75 70.381, 75.922 70.560, 78.250 70.088 C 81.010 69.529, 81.547 68.945, 81.813 66.215 C 81.986 64.447, 82.516 63, 82.992 63 C 83.975 63, 87.344 73.581, 87.211 76.250 C 87.095 78.598, 89.269 78.465, 91.511 75.988 C 92.841 74.518, 93.456 71.839, 93.791 66.047 C 94.119 60.390, 94.663 57.960, 95.690 57.565 C 96.869 57.113, 97.105 58.326, 96.992 64.256 C 96.792 74.705, 96.763 74.571, 99.547 75.839 C 102.781 77.313, 103 77.297, 103 75.594 C 103 74.680, 103.700 74.370, 105 74.710 C 107.007 75.235, 107.809 73.618, 106.074 72.546 C 105.158 71.979, 105.388 67.504, 106.517 63.947 C 107.343 61.343, 110 62.659, 110 65.673 C 110 69.782, 111.776 72, 115.065 72 L 118.060 72 115.851 69.012 C 114.636 67.369, 113.854 65.812, 114.114 65.553 C 114.373 65.293, 117.485 65.983, 121.027 67.086 C 129.434 69.702, 136.375 69.378, 136.807 66.349 C 136.994 65.037, 135.859 62.770, 133.898 60.537 C 130.746 56.947, 119.013 48, 117.457 48 C 117.023 48, 120.342 51.414, 124.834 55.587 M 25.200 92.200 C 22.946 94.454, 23.881 96.924, 27.572 98.466 C 29.537 99.286, 30.860 100.418, 30.513 100.979 C 29.655 102.367, 26.258 102.274, 25.783 100.850 C 25.573 100.218, 24.800 99.900, 24.066 100.145 C 23.027 100.491, 23.109 100.966, 24.438 102.295 C 26.539 104.396, 30.335 104.506, 31.989 102.513 C 33.734 100.411, 32.503 98.016, 28.998 96.693 C 27.349 96.071, 26 95.237, 26 94.840 C 26 93.345, 28.144 92.874, 29.568 94.056 C 31.514 95.671, 32.643 94.480, 31.020 92.524 C 29.503 90.696, 26.851 90.549, 25.200 92.200 M 40 93 C 36.303 96.697, 38.626 104, 43.500 104 C 44.833 104, 46.574 103.018, 47.443 101.777 L 49 99.555 50.557 101.777 C 52.484 104.530, 54.155 104.591, 56.504 101.996 C 58.010 100.332, 58.122 99.564, 57.167 97.468 C 55.277 93.319, 53.348 93.417, 48.875 97.890 C 44.238 102.526, 42.574 102.942, 40.932 99.874 C 38.903 96.083, 43.296 90.434, 45.500 94 C 45.840 94.550, 46.836 95, 47.714 95 C 49.104 95, 49.076 94.742, 47.500 93 C 46.505 91.900, 44.860 91, 43.845 91 C 42.830 91, 41.100 91.900, 40 93 M 117.527 92.616 C 115.363 94.780, 115.979 96.213, 119.809 97.930 C 121.564 98.717, 123 99.955, 123 100.680 C 123 102.321, 119.812 102.412, 118.217 100.817 C 117.566 100.166, 116.689 99.978, 116.268 100.398 C 115.292 101.374, 118.830 104, 121.120 104 C 122.075 104, 123.563 103.294, 124.427 102.431 C 126.558 100.299, 124.995 97.543, 120.834 96.092 C 118.322 95.216, 117.889 94.711, 118.838 93.762 C 119.787 92.813, 120.499 92.831, 122.122 93.844 C 124.634 95.413, 125.765 94.626, 124.020 92.524 C 122.376 90.543, 119.560 90.583, 117.527 92.616 M -0 98.059 C -0 101.844, 0.375 103.886, 1 103.500 C 1.550 103.160, 2.018 101.671, 2.039 100.191 C 2.078 97.521, 2.089 97.526, 3.491 100.750 C 4.268 102.537, 5.149 104, 5.449 104 C 5.749 104, 6.634 102.537, 7.416 100.750 L 8.837 97.500 8.918 100.250 C 9.074 105.509, 11 102.965, 11 97.500 C 11 90.737, 8.965 90.046, 6.958 96.127 L 5.596 100.254 4.091 96.127 C 1.826 89.914, 0 90.776, -0 98.059 M 15.999 92.250 C 15.999 92.388, 15.101 94.862, 14.004 97.750 C 12.317 102.188, 12.240 103, 13.504 103 C 14.327 103, 15 102.325, 15 101.500 C 15 99.212, 18.556 99.713, 20.326 102.250 C 21.487 103.915, 21.909 104.092, 21.948 102.928 C 22.050 99.844, 18.791 92, 17.406 92 C 16.633 92, 16 92.112, 15.999 92.250 M 112.035 93.934 C 110.312 97.153, 110.820 102.574, 113.084 105.139 C 114.914 107.213, 115.088 107.257, 114.514 105.500 C 113.024 100.944, 112.828 97.932, 113.833 95.050 C 115.011 91.671, 113.686 90.850, 112.035 93.934 M 127.200 97.750 C 127.487 103.257, 127.622 103.514, 130.372 103.828 C 131.951 104.009, 133.729 103.671, 134.322 103.078 C 135.093 102.307, 134.488 102, 132.200 102 C 129.027 102, 129 101.958, 129 97 C 129 94.175, 128.543 92, 127.950 92 C 127.304 92, 127.015 94.211, 127.200 97.750 M 136.459 99.494 C 136.423 106.057, 136.579 106.732, 137.673 104.761 C 139.302 101.828, 139.343 95.852, 137.750 93.674 C 136.708 92.251, 136.493 93.221, 136.459 99.494 M 145 97.393 C 145 101.388, 145.410 102.943, 146.582 103.393 C 149.062 104.345, 153 104.104, 153 103 C 153 102.450, 151.875 102, 150.500 102 C 148.167 102, 148 101.667, 148 97 C 148 93.222, 147.633 92, 146.500 92 C 145.352 92, 145 93.266, 145 97.393 M 174.858 93.684 C 174.224 96.492, 175.376 103.303, 176.551 103.689 C 177.213 103.906, 177.514 102.130, 177.365 98.881 C 177.120 93.549, 175.600 90.398, 174.858 93.684 M 193 93.469 C 193 94.276, 192.409 94.710, 191.687 94.433 C 190.965 94.156, 189.560 94.828, 188.566 95.927 C 186.761 97.921, 186.757 97.921, 185.062 95.829 C 183.630 94.059, 183.027 93.915, 181.183 94.902 C 178.627 96.270, 178.190 101.083, 180.452 102.960 C 182.504 104.663, 186 103.300, 186 100.798 C 186 98.886, 186.155 98.928, 188.060 101.349 C 189.411 103.066, 190.960 103.898, 192.560 103.766 C 194.842 103.577, 195 103.190, 195 97.782 C 195 94.594, 194.551 92, 194 92 C 193.450 92, 193 92.661, 193 93.469 M 60.750 94.752 C 59.447 95.046, 59 96.151, 59 99.073 C 59 103.802, 60.744 104.341, 61.187 99.750 C 61.359 97.963, 61.950 96.500, 62.500 96.500 C 63.050 96.500, 63.641 97.963, 63.813 99.750 C 64.204 103.803, 66 104.057, 66 100.059 C 66 98.441, 66.450 96.840, 67 96.500 C 67.595 96.132, 68 97.323, 68 99.441 C 68 101.938, 68.448 103, 69.500 103 C 71.146 103, 71.572 98.451, 70.138 96.189 C 69.293 94.856, 63.930 94.035, 60.750 94.752 M 73.750 94.689 C 72.332 95.060, 72 96.270, 72 101.073 C 72 104.358, 72.446 107, 73 107 C 73.550 107, 74 106.374, 74 105.608 C 74 104.843, 75.125 103.934, 76.500 103.589 C 77.875 103.244, 79 102.451, 79 101.826 C 79 101.156, 79.730 101.350, 80.779 102.300 C 81.811 103.234, 83.806 103.777, 85.529 103.593 C 88.258 103.302, 88.472 103, 88.155 99.888 C 87.582 94.273, 84.659 92.296, 81.880 95.644 C 80.671 97.101, 80.761 97.211, 82.674 96.604 C 83.861 96.227, 85.121 96.387, 85.475 96.959 C 85.832 97.538, 85.292 98, 84.259 98 C 83.237 98, 81.860 98.540, 81.200 99.200 C 80.267 100.133, 80 100.038, 80 98.771 C 80 97.095, 77.385 93.910, 76.179 94.116 C 75.805 94.180, 74.713 94.438, 73.750 94.689 M 91.750 94.689 C 90.458 95.027, 90 96.175, 90 99.073 C 90 103.802, 91.744 104.341, 92.187 99.750 C 92.359 97.963, 92.950 96.500, 93.500 96.500 C 94.050 96.500, 94.641 97.963, 94.813 99.750 C 95.223 104.004, 97 103.963, 97 99.700 C 97 96.720, 95.467 93.817, 94.050 94.116 C 93.748 94.180, 92.713 94.438, 91.750 94.689 M 159.750 94.752 C 158.447 95.046, 158 96.151, 158 99.073 C 158 103.802, 159.744 104.341, 160.187 99.750 C 160.359 97.963, 160.950 96.500, 161.500 96.500 C 162.050 96.500, 162.641 97.963, 162.813 99.750 C 163.204 103.803, 165 104.057, 165 100.059 C 165 98.441, 165.450 96.840, 166 96.500 C 166.595 96.132, 167 97.323, 167 99.441 C 167 101.938, 167.448 103, 168.500 103 C 170.146 103, 170.572 98.451, 169.138 96.189 C 168.293 94.856, 162.930 94.035, 159.750 94.752 M 16.638 96.500 C 16.322 97.325, 16.499 98, 17.031 98 C 17.564 98, 18 97.325, 18 96.500 C 18 95.675, 17.823 95, 17.607 95 C 17.391 95, 16.955 95.675, 16.638 96.500 M 98 95.374 C 98 95.580, 98.651 97.593, 99.446 99.848 C 100.317 102.317, 100.516 104.181, 99.946 104.533 C 98.669 105.323, 98.743 107, 100.056 107 C 101.463 107, 105.228 98.377, 104.769 96.208 C 104.488 94.885, 104.056 95.152, 102.849 97.397 L 101.290 100.293 100.626 97.647 C 100.261 96.191, 99.520 95, 98.981 95 C 98.441 95, 98 95.168, 98 95.374 M 154 99 C 154 101.200, 154.450 103, 155 103 C 155.550 103, 156 101.200, 156 99 C 156 96.800, 155.550 95, 155 95 C 154.450 95, 154 96.800, 154 99 M 171 99 C 171 101.200, 171.450 103, 172 103 C 172.550 103, 173 101.200, 173 99 C 173 96.800, 172.550 95, 172 95 C 171.450 95, 171 96.800, 171 99 M 52.690 96.643 C 52.311 97.023, 52 98.383, 52 99.667 C 52 102.365, 54.465 102.836, 55.430 100.322 C 56.117 98.532, 53.848 95.485, 52.690 96.643 M 74.430 97.322 C 73.650 99.355, 74.538 102, 76 102 C 77.883 102, 78.323 98.894, 76.673 97.245 C 75.207 95.778, 75.020 95.785, 74.430 97.322 M 181.500 97 C 181.160 97.550, 181.610 98, 182.500 98 C 183.390 98, 183.840 97.550, 183.500 97 C 183.160 96.450, 182.710 96, 182.500 96 C 182.290 96, 181.840 96.450, 181.500 97 M 190.639 96.694 C 189.352 97.982, 190.003 102, 191.500 102 C 192.424 102, 193 101.062, 193 99.559 C 193 97.050, 191.773 95.560, 190.639 96.694 M 83 101 C 83 101.550, 83.423 102, 83.941 102 C 84.459 102, 85.160 101.550, 85.500 101 C 85.840 100.450, 85.416 100, 84.559 100 C 83.702 100, 83 100.450, 83 101 M 181 101 C 181 101.550, 181.648 102, 182.441 102 C 183.234 102, 184.160 101.550, 184.500 101 C 184.840 100.450, 184.191 100, 183.059 100 C 181.927 100, 181 100.450, 181 101" stroke="none" fill="black" fill-rule="evenodd"/>
</svg>